<svg xmlns="http://www.w3.org/2000/svg" version="1.1" xmlns:xlink="http://www.w3.org/1999/xlink" xmlns:svgjs="http://svgjs.dev/svgjs" width="1920" height="1080" preserveAspectRatio="none" viewBox="0 0 1920 1080"><g mask="url(&quot;#SvgjsMask1009&quot;)" fill="none"><rect width="1920" height="1080" x="0" y="0" fill="#0e2a47"></rect><path d="M 0,56 C 76.8,147.8 230.4,500.4 384,515 C 537.6,529.6 614.4,171.4 768,129 C 921.6,86.6 998.4,291.8 1152,303 C 1305.6,314.2 1382.4,172.4 1536,185 C 1689.6,197.6 1843.2,329.8 1920,366L1920 1080L0 1080z" fill="#184a7e"></path><path d="M 0,612 C 128,680 384,914.2 640,952 C 896,989.8 1024,797.6 1280,801 C 1536,804.4 1792,935.4 1920,969L1920 1080L0 1080z" fill="#2264ab"></path></g><defs><mask id="SvgjsMask1009"><rect width="1920" height="1080" fill="#ffffff"></rect></mask></defs></svg>